$MeshFormat
4.1 0 8
$EndMeshFormat
$PhysicalNames
4
1 10 "_boundary"
2 1 "uo2"
2 2 "zr"
2 3 "h2o"
$EndPhysicalNames
$Entities
14 12 3 0
1 0 0 0 0 
2 0.46 0 0 0 
3 2.816687638038912e-17 0.46 0 0 
4 -0.46 5.633375276077825e-17 0 0 
5 -8.450062914116737e-17 -0.46 0 0 
6 0 0 0 0 
7 0.54 0 0 0 
8 3.306546357697854e-17 0.54 0 0 
9 -0.54 6.613092715395707e-17 0 0 
10 -9.919639073093561e-17 -0.54 0 0 
11 -0.63 -0.63 0 0 
12 0.63 -0.63 0 0 
13 0.63 0.63 0 0 
14 -0.63 0.63 0 0 
1 2.775557561562891e-17 0 0 0.46 0.46 0 0 2 2 -3 
2 -0.46 5.551115123125783e-17 0 2.775557561562891e-17 0.46 0 0 2 3 -4 
3 -0.46 -0.46 0 -8.326672684688674e-17 5.551115123125783e-17 0 0 2 4 -5 
4 -8.326672684688674e-17 -0.46 0 0.46 0 0 0 2 5 -2 
5 5.551115123125783e-17 0 0 0.54 0.54 0 0 2 7 -8 
6 -0.54 5.551115123125783e-17 0 5.551115123125783e-17 0.54 0 0 2 8 -9 
7 -0.54 -0.54 0 -1.110223024625157e-16 5.551115123125783e-17 0 0 2 9 -10 
8 -1.110223024625157e-16 -0.54 0 0.54 0 0 0 2 10 -7 
9 -0.63 -0.63 0 0.63 -0.63 0 1 10 2 11 -12 
10 0.63 -0.63 0 0.63 0.63 0 1 10 2 12 -13 
11 -0.63 0.63 0 0.63 0.63 0 1 10 2 13 -14 
12 -0.63 -0.63 0 -0.63 0.63 0 1 10 2 14 -11 
1 -0.46 -0.46 0 0.46 0.46 0 1 1 4 1 2 3 4 
2 -0.54 -0.54 0 0.54 0.54 0 1 2 8 5 6 7 8 1 2 3 4 
3 -0.63 -0.63 0 0.63 0.63 0 1 3 8 9 10 11 12 5 6 7 8 
$EndEntities
$Nodes
27 163 1 163
0 2 0 1
1
0.46 0 0
0 3 0 1
2
2.816687638038912e-17 0.46 0
0 4 0 1
3
-0.46 5.633375276077825e-17 0
0 5 0 1
4
-8.450062914116737e-17 -0.46 0
0 7 0 1
5
0.54 0 0
0 8 0 1
6
3.306546357697854e-17 0.54 0
0 9 0 1
7
-0.54 6.613092715395707e-17 0
0 10 0 1
8
-9.919639073093561e-17 -0.54 0
0 11 0 1
9
-0.63 -0.63 0
0 12 0 1
10
0.63 -0.63 0
0 13 0 1
11
0.63 0.63 0
0 14 0 1
12
-0.63 0.63 0
1 1 0 7
13
14
15
16
17
18
19
0.4511612289431596 0.08974154834020799 0
0.4249845847598157 0.1760343793596214 0
0.3824760212498829 0.2555623078015597 0
0.3252691186202176 0.3252691200714061 0
0.2555623065362292 0.3824760220953496 0
0.176034378355493 0.4249845851757392 0
0.08974154782988621 0.451161229044669 0
1 2 0 7
20
21
22
23
24
25
26
-0.08974154834020796 0.4511612289431596 0
-0.1760343793596214 0.4249845847598157 0
-0.2555623078015597 0.3824760212498829 0
-0.3252691200714061 0.3252691186202176 0
-0.3824760220953496 0.2555623065362292 0
-0.4249845851757392 0.1760343783554931 0
-0.451161229044669 0.08974154782988623 0
1 3 0 7
27
28
29
30
31
32
33
-0.4511612289431596 -0.08974154834020794 0
-0.4249845847598157 -0.1760343793596213 0
-0.3824760212498829 -0.2555623078015596 0
-0.3252691186202177 -0.3252691200714061 0
-0.2555623065362293 -0.3824760220953496 0
-0.1760343783554931 -0.4249845851757392 0
-0.08974154782988626 -0.451161229044669 0
1 4 0 7
34
35
36
37
38
39
40
0.08974154832041031 -0.4511612289470976 0
0.1760343793135487 -0.4249845847788996 0
0.2555623077320898 -0.3824760212963012 0
0.3252691200043231 -0.3252691186873006 0
0.382476022038579 -0.2555623066211926 0
0.4249845851495301 -0.1760343784187675 0
0.4511612290363919 -0.08974154787149799 0
1 5 0 4
41
42
43
44
0.5135705186517606 0.1668691774168065 0
0.4368691763803033 0.3174040370392215 0
0.3174040354590242 0.4368691775283839 0
0.1668691764426063 0.5135705189682974 0
1 6 0 4
45
46
47
48
-0.1668691774168065 0.5135705186517606 0
-0.3174040370392215 0.4368691763803033 0
-0.4368691775283839 0.3174040354590242 0
-0.5135705189682974 0.1668691764426063 0
1 7 0 4
49
50
51
52
-0.5135705186517606 -0.1668691774168064 0
-0.4368691763803033 -0.3174040370392214 0
-0.3174040354590242 -0.4368691775283838 0
-0.1668691764426064 -0.5135705189682974 0
1 8 0 4
53
54
55
56
0.1668691773780009 -0.5135705186643693 0
0.3174040369636871 -0.4368691764351822 0
0.4368691774817487 -0.317404035523212 0
0.5135705189420958 -0.1668691765232466 0
1 9 0 4
57
58
59
60
-0.3780000000005617 -0.63 0
-0.1260000000013101 -0.63 0
0.125999999998634 -0.63 0
0.377999999999307 -0.63 0
1 10 0 4
61
62
63
64
0.63 -0.3780000000005617 0
0.63 -0.1260000000013101 0
0.63 0.125999999998634 0
0.63 0.377999999999307 0
1 11 0 4
65
66
67
68
0.3780000000005617 0.63 0
0.1260000000013101 0.63 0
-0.125999999998634 0.63 0
-0.377999999999307 0.63 0
1 12 0 4
69
70
71
72
-0.63 0.3780000000005617 0
-0.63 0.1260000000013101 0
-0.63 -0.125999999998634 0
-0.63 -0.377999999999307 0
2 1 0 79
73
74
75
76
77
78
79
80
81
82
83
84
85
86
87
88
89
90
91
92
93
94
95
96
97
98
99
100
101
102
103
104
105
106
107
108
109
110
111
112
113
114
115
116
117
118
119
120
121
122
123
124
125
126
127
128
129
130
131
132
133
134
135
136
137
138
139
140
141
142
143
144
145
146
147
148
149
150
151
-0.03721617372939446 -0.3778621543267167 0
0.04138876910498582 0.3816935444834232 0
-0.3778621543267168 0.03721617372939442 0
0.382244423088088 -0.03340700136589796 0
0.2476255045553956 -0.2967578226891856 0
-0.2467717785236606 0.2967585975301221 0
-0.2935046998903258 -0.2408730831496963 0
0.2935046998903257 0.2408730831496963 0
-0.3454645781406527 -0.1008677591369549 0
-0.110681413109454 0.3596937456142631 0
0.1121961593307912 -0.3618763362277681 0
0.3633411230836027 0.1102183250193328 0
0.3300816412192058 -0.1745868000161798 0
0.1772548805800911 0.3411510317071327 0
-0.3330173003507367 0.1825895048960414 0
-0.1829272261818045 -0.3351763656342014 0
0.1887373325634352 -0.3451459497960276 0
0.160598865532969 -0.2630268167595489 0
0.04252511095892333 -0.2955238588944707 0
0.08542795497772035 -0.1871323390972418 0
-0.01407229947969242 -0.2028946638765786 0
0.02045598451321987 -0.108462673711886 0
-0.07790042702485683 -0.1258180721095004 0
-0.04388237164246825 -0.03162945965878696 0
0.0544714046877402 -0.01384929483980882 0
-0.009915670994196305 0.06258738436957352 0
-0.1083488333995632 0.04487463914486211 0
0.08848234871874952 0.08027237752952152 0
0.1528316776999392 0.004120745054338375 0
-0.07445070402832921 0.1389741973657266 0
0.184153406160261 0.09793215698270286 0
0.1215130520308127 0.1708420897350051 0
-0.1726814384248839 0.120872832370825 0
-0.2047076737152733 0.02641300072959556 0
0.1822972122757284 -0.1593699485307742 0
0.2417364689395466 0.02076118390470684 0
-0.1067457516242065 -0.2134989345498821 0
-0.1743971630526338 -0.1416069838092564 0
-0.1327935910498669 0.2086119662785929 0
-0.04020897029638328 0.2254055674354218 0
0.02388033640398267 0.154805519565224 0
0.05946543334750631 0.2366883577559488 0
-0.1422140212962838 -0.04917588521105691 0
-0.2378504493732266 -0.06897513246034606 0
-0.2852880570711829 0.09751995200390404 0
0.1182712019448574 -0.08987357055912536 0
0.2089783379870572 -0.07255370288052423 0
-0.2357985664140375 0.2023278187288827 0
0.2143214381903423 0.1948392937160266 0
-0.04881566778170556 -0.2867102719174404 0
-0.1993676915084177 -0.2402659937060157 0
-0.2664484153123806 -0.1564053310711835 0
-0.303505393178645 -0.004091459122529856 0
0.2807248007891948 0.1287204326386913 0
0.1570013343958671 0.2553767700070362 0
0.2555989826985374 -0.2097646633106024 0
-0.1920938823544351 0.3484967681172011 0
0.3490062459545644 0.1822817055937803 0
-0.3425756598706116 -0.1859485721038031 0
0.3953046978302918 0.04336676598743868 0
-0.0348471470235744 0.3930553518867148 0
-0.01226569337798497 0.312399461014906 0
-0.3891314854848048 -0.03355595007686928 0
0.04144932897614605 -0.3892847156792106 0
-0.3046665574910381 0.2525014692622986 0
0.2371522963688455 0.2899975534577745 0
-0.251326208547399 -0.3048121169313338 0
0.3781384485813058 -0.1099378860098096 0
0.3024955909286814 -0.06492631045710576 0
-0.1092989643058099 -0.3612207604599656 0
-0.3744626651938089 0.1166203113629438 0
0.1184613424400484 0.3807263696058565 0
-0.09347384016231385 0.2769363263550212 0
0.3082102541032082 -0.2523881422648921 0
0.2565131026489583 -0.1350409247755861 0
0.3237891987678801 0.04203671033010348 0
0.09021767774841893 0.3180059224290505 0
-0.1210587919565758 -0.2914299566610276 0
-0.1686021786022947 0.2821375371040138 0
2 2 0 0
2 3 0 12
152
153
154
155
156
157
158
159
160
161
162
163
0.4612144181915119 -0.4612144175020874 0
-0.4612144174653832 -0.4612144182257099 0
-0.4612144182257101 0.4612144174653832 0
0.4612144174653832 0.4612144182257101 0
0.2898975258737771 0.5343308229444782 0
-0.5343308229444783 0.289897525873777 0
-0.2898975258737771 -0.5343308229444783 0
0.5343308229230712 -0.2898975259100835 0
0.2898975265062282 -0.5343308225203277 0
-0.2898975265359358 0.5343308224994895 0
-0.5343308224994895 -0.2898975265359358 0
0.5343308224994894 0.2898975265359358 0
$EndNodes
$Elements
7 324 1 324
1 9 1 5
1 9 57 
2 57 58 
3 58 59 
4 59 60 
5 60 10 
1 10 1 5
6 10 61 
7 61 62 
8 62 63 
9 63 64 
10 64 11 
1 11 1 5
11 11 65 
12 65 66 
13 66 67 
14 67 68 
15 68 12 
1 12 1 5
16 12 69 
17 69 70 
18 70 71 
19 71 72 
20 72 9 
2 1 2 188
21 81 116 125 
22 81 125 135 
23 91 73 136 
24 73 91 122 
25 116 81 124 
26 141 76 148 
27 108 141 148 
28 117 75 125 
29 75 117 143 
30 127 121 138 
31 74 134 149 
32 80 121 126 
33 134 114 149 
34 80 126 130 
35 83 90 91 
36 121 80 138 
37 107 90 128 
38 83 91 136 
39 91 90 92 
40 90 77 128 
41 92 90 107 
42 91 92 93 
43 93 92 94 
44 93 94 95 
45 93 95 109 
46 95 94 96 
47 96 94 97 
48 109 95 110 
49 96 97 98 
50 98 97 100 
51 96 98 99 
52 100 97 101 
53 99 98 102 
54 100 101 103 
55 99 102 105 
56 99 105 106 
57 105 102 111 
58 100 103 104 
59 103 101 108 
60 111 102 112 
61 98 100 113 
62 102 98 113 
63 112 102 113 
64 100 104 113 
65 112 113 114 
66 113 104 114 
67 99 106 115 
68 95 96 115 
69 110 95 115 
70 96 99 115 
71 115 106 116 
72 110 115 116 
73 101 118 119 
74 92 107 118 
75 101 97 118 
76 94 92 118 
77 118 107 119 
78 108 119 141 
79 106 105 117 
80 97 94 118 
81 105 111 120 
82 108 101 119 
83 87 117 120 
84 117 105 120 
85 83 89 90 
86 73 122 142 
87 91 93 122 
88 142 122 150 
89 117 87 143 
90 103 108 126 
91 106 117 125 
92 22 23 78 
93 15 16 80 
94 29 30 79 
95 36 37 77 
96 13 14 84 
97 27 28 81 
98 20 21 82 
99 34 35 83 
100 38 39 85 
101 31 32 88 
102 17 18 86 
103 24 25 87 
104 40 1 76 
105 19 2 74 
106 33 4 73 
107 26 3 75 
108 104 103 121 
109 123 88 150 
110 114 104 127 
111 125 75 135 
112 120 111 151 
113 134 82 145 
114 93 109 122 
115 109 110 123 
116 85 141 147 
117 78 120 151 
118 79 123 124 
119 123 110 124 
120 110 116 124 
121 85 140 141 
122 112 114 134 
123 88 123 139 
124 133 82 134 
125 116 106 125 
126 124 81 131 
127 86 127 138 
128 121 103 126 
129 76 132 148 
130 109 123 150 
131 145 82 151 
132 82 129 151 
133 126 84 130 
134 89 77 90 
135 87 120 137 
136 120 78 137 
137 104 121 127 
138 126 108 148 
139 144 74 149 
140 111 112 145 
141 2 20 133 
142 3 27 135 
143 1 13 132 
144 4 34 136 
145 21 22 129 
146 14 15 130 
147 28 29 131 
148 35 36 89 
149 16 17 138 
150 23 24 137 
151 30 31 139 
152 39 40 140 
153 25 26 143 
154 18 19 144 
155 32 33 142 
156 114 127 149 
157 119 107 147 
158 123 79 139 
159 79 124 131 
160 37 38 146 
161 82 21 129 
162 84 14 130 
163 81 28 131 
164 83 35 89 
165 13 84 132 
166 20 82 133 
167 27 81 135 
168 34 83 136 
169 80 16 138 
170 78 23 137 
171 79 30 139 
172 15 80 130 
173 22 78 129 
174 29 79 131 
175 36 77 89 
176 76 1 132 
177 74 2 133 
178 75 3 135 
179 73 4 136 
180 85 39 140 
181 17 86 138 
182 24 87 137 
183 31 88 139 
184 86 18 144 
185 88 32 142 
186 87 25 143 
187 40 76 140 
188 33 73 142 
189 19 74 144 
190 26 75 143 
191 112 134 145 
192 77 37 146 
193 38 85 146 
194 128 85 147 
195 84 126 148 
196 140 76 141 
197 74 133 134 
198 122 109 150 
199 107 128 147 
200 88 142 150 
201 128 77 146 
202 85 128 146 
203 127 86 149 
204 141 119 147 
205 86 144 149 
206 132 84 148 
207 111 145 151 
208 129 78 151 
2 2 2 52
209 37 36 54 
210 42 16 15 
211 30 29 50 
212 23 22 46 
213 38 37 55 
214 24 23 47 
215 31 30 51 
216 43 17 16 
217 14 13 41 
218 21 20 45 
219 28 27 49 
220 35 34 53 
221 40 39 56 
222 19 18 44 
223 26 25 48 
224 33 32 52 
225 26 48 7 
226 34 8 53 
227 42 43 16 
228 18 43 44 
229 28 49 50 
230 30 50 51 
231 32 51 52 
232 35 53 54 
233 37 54 55 
234 39 55 56 
235 5 13 1 
236 40 5 1 
237 19 6 2 
238 6 20 2 
239 3 26 7 
240 27 3 7 
241 4 33 8 
242 34 4 8 
243 41 13 5 
244 5 40 56 
245 6 19 44 
246 45 20 6 
247 49 27 7 
248 8 33 52 
249 14 42 15 
250 42 14 41 
251 18 17 43 
252 22 21 46 
253 46 21 45 
254 47 23 46 
255 25 24 47 
256 48 25 47 
257 29 28 50 
258 32 31 51 
259 36 35 54 
260 39 38 55 
2 3 2 64
261 65 66 156 
262 69 70 157 
263 57 58 158 
264 61 62 159 
265 59 60 160 
266 63 64 163 
267 71 72 162 
268 67 68 161 
269 63 41 5 
270 49 7 71 
271 6 67 45 
272 59 53 8 
273 5 56 62 
274 66 6 44 
275 48 70 7 
276 52 58 8 
277 72 9 153 
278 68 12 154 
279 64 11 155 
280 60 10 152 
281 10 61 152 
282 11 65 155 
283 12 69 154 
284 9 57 153 
285 41 63 163 
286 45 67 161 
287 49 71 162 
288 53 59 160 
289 62 56 159 
290 58 52 158 
291 70 48 157 
292 66 44 156 
293 55 54 152 
294 43 42 155 
295 47 46 154 
296 51 50 153 
297 46 45 161 
298 42 41 163 
299 50 49 162 
300 54 53 160 
301 44 43 156 
302 48 47 157 
303 52 51 158 
304 56 55 159 
305 153 50 162 
306 154 46 161 
307 155 42 163 
308 152 54 160 
309 55 152 159 
310 43 155 156 
311 47 154 157 
312 51 153 158 
313 72 153 162 
314 64 155 163 
315 68 154 161 
316 60 152 160 
317 152 61 159 
318 155 65 156 
319 154 69 157 
320 153 57 158 
321 7 70 71 
322 58 59 8 
323 63 5 62 
324 67 6 66 
$EndElements
