$MeshFormat
4.1 0 8
$EndMeshFormat
$PhysicalNames
4
1 10 "_boundary"
2 1 "uo2"
2 2 "zr"
2 3 "co2"
$EndPhysicalNames
$Entities
16 14 3 0
1 0 0 0 0 
2 0.4225 0 0 0 
3 2.587066363198783e-17 0.4225 0 0 
4 -0.4225 5.174132726397567e-17 0 0 
5 -7.761199089596351e-17 -0.4225 0 0 
6 0 0 0 0 
7 0.487571 0 0 0 
8 2.985511322535371e-17 0.487571 0 0 
9 -0.487571 5.971022645070741e-17 0 0 
10 -8.956533967606112e-17 -0.487571 0 0 
11 -0.3117691453623979 -0.5400000000000001 0 0 
12 0.311769145362398 -0.54 0 0 
13 0.6235382907247959 0 0 0 
14 0.311769145362398 0.54 0 0 
15 -0.3117691453623979 0.5400000000000001 0 0 
16 -0.6235382907247959 7.636141718819331e-17 0 0 
1 2.775557561562891e-17 0 0 0.4225 0.4225 0 0 2 2 -3 
2 -0.4225 5.551115123125783e-17 0 2.775557561562891e-17 0.4225 0 0 2 3 -4 
3 -0.4225 -0.4225 0 -8.326672684688674e-17 5.551115123125783e-17 0 0 2 4 -5 
4 -8.326672684688674e-17 -0.4225 0 0.4225 0 0 0 2 5 -2 
5 2.775557561562891e-17 0 0 0.487571 0.487571 0 0 2 7 -8 
6 -0.487571 5.551115123125783e-17 0 2.775557561562891e-17 0.487571 0 0 2 8 -9 
7 -0.487571 -0.487571 0 -8.326672684688674e-17 5.551115123125783e-17 0 0 2 9 -10 
8 -8.326672684688674e-17 -0.487571 0 0.487571 0 0 0 2 10 -7 
9 -0.3117691453623979 -0.5400000000000001 0 0.3117691453623981 -0.54 0 1 10 2 11 -12 
10 0.311769145362398 -0.54 0 0.6235382907247959 0 0 1 10 2 12 -13 
11 0.311769145362398 0 0 0.6235382907247959 0.54 0 1 10 2 13 -14 
12 -0.3117691453623979 0.54 0 0.311769145362398 0.5400000000000001 0 1 10 2 14 -15 
13 -0.6235382907247959 1.110223024625157e-16 0 -0.3117691453623979 0.5400000000000001 0 1 10 2 15 -16 
14 -0.6235382907247959 -0.5400000000000001 0 -0.3117691453623979 5.551115123125783e-17 0 1 10 2 16 -11 
1 -0.4225 -0.4225 0 0.4225 0.4225 0 1 1 4 1 2 3 4 
2 -0.487571 -0.487571 0 0.487571 0.487571 0 1 2 8 5 6 7 8 1 2 3 4 
3 -0.6235382907247959 -0.5400000000000001 0 0.6235382907247959 0.5400000000000001 0 1 3 10 9 10 11 12 13 14 5 6 7 8 
$EndEntities
$Nodes
31 129 1 129
0 2 0 1
1
0.4225 0 0
0 3 0 1
2
2.587066363198783e-17 0.4225 0
0 4 0 1
3
-0.4225 5.174132726397567e-17 0
0 5 0 1
4
-7.761199089596351e-17 -0.4225 0
0 7 0 1
5
0.487571 0 0
0 8 0 1
6
2.985511322535371e-17 0.487571 0
0 9 0 1
7
-0.487571 5.971022645070741e-17 0
0 10 0 1
8
-8.956533967606112e-17 -0.487571 0
0 11 0 1
9
-0.3117691453623979 -0.5400000000000001 0
0 12 0 1
10
0.311769145362398 -0.54 0
0 13 0 1
11
0.6235382907247959 0 0
0 14 0 1
12
0.311769145362398 0.54 0
0 15 0 1
13
-0.3117691453623979 0.5400000000000001 0
0 16 0 1
14
-0.6235382907247959 7.636141718819331e-17 0
1 1 0 6
15
16
17
18
19
20
0.4119070428446349 0.09401509482518255 0
0.3806593464561789 0.1833158802601529 0
0.3303238008295969 0.2634244419287792 0
0.2634244406623603 0.3303238018395322 0
0.1833158792569613 0.3806593469392905 0
0.0940150942921528 0.4119070429662955 0
1 2 0 6
21
22
23
24
25
26
-0.09401509482518253 0.4119070428446349 0
-0.1833158802601529 0.3806593464561789 0
-0.2634244419287792 0.3303238008295969 0
-0.3303238018395322 0.2634244406623603 0
-0.3806593469392905 0.1833158792569613 0
-0.4119070429662955 0.09401509429215282 0
1 3 0 6
27
28
29
30
31
32
-0.4119070428446349 -0.0940150948251825 0
-0.3806593464561789 -0.1833158802601529 0
-0.330323800829597 -0.2634244419287792 0
-0.2634244406623604 -0.3303238018395322 0
-0.1833158792569614 -0.3806593469392905 0
-0.09401509429215285 -0.4119070429662955 0
1 4 0 6
33
34
35
36
37
38
0.09401509482163904 -0.4119070428454437 0
0.183315880261878 -0.3806593464553482 0
0.2634244418829824 -0.3303238008661187 0
0.3303238017713503 -0.2634244407478578 0
0.3806593469254079 -0.1833158792857889 0
0.4119070429528396 -0.09401509435110673 0
1 5 0 3
39
40
41
0.4504568673551612 0.186585344262551 0
0.3447647596372536 0.3447647611825587 0
0.186585343206476 0.4504568677926018 0
1 6 0 3
42
43
44
-0.1865853442625509 0.4504568673551612 0
-0.3447647611825587 0.3447647596372536 0
-0.4504568677926018 0.1865853432064761 0
1 7 0 3
45
46
47
-0.4504568673551612 -0.1865853442625509 0
-0.3447647596372536 -0.3447647611825587 0
-0.1865853432064761 -0.4504568677926018 0
1 8 0 3
48
49
50
0.1865853442070765 -0.4504568673781395 0
0.3447647610900999 -0.3447647597297124 0
0.4504568677707438 -0.1865853432592458 0
1 9 0 2
51
52
-0.1039230484546567 -0.5400000000000001 0
0.1039230484535796 -0.54 0
1 10 0 2
53
54
0.4156921938162746 -0.3600000000004435 0
0.5196152422704043 -0.1800000000004486 0
1 11 0 2
55
56
0.5196152422709034 0.1799999999995842 0
0.415692193816785 0.3599999999995594 0
1 12 0 2
57
58
0.103923048454628 0.54 0
-0.1039230484535939 0.5400000000000001 0
1 13 0 2
59
60
-0.4156921938162584 0.3600000000004716 0
-0.5196152422703908 0.1800000000004721 0
1 14 0 2
61
62
-0.5196152422709157 -0.1799999999995628 0
-0.4156921938168113 -0.3599999999995139 0
2 1 0 63
63
64
65
66
67
68
69
70
71
72
73
74
75
76
77
78
79
80
81
82
83
84
85
86
87
88
89
90
91
92
93
94
95
96
97
98
99
100
101
102
103
104
105
106
107
108
109
110
111
112
113
114
115
116
117
118
119
120
121
122
123
124
125
-0.03783377725369134 -0.3357840614869541 0
0.04376915645433391 0.3405861060443718 0
-0.3357840614869541 0.03783377725369132 0
0.3445125299712902 -0.04681937019512239 0
0.1797782999482806 -0.2861155243467913 0
-0.2861155242913291 -0.1797782999401916 0
-0.1797782999401916 0.2861155242913291 0
0.2775219747903682 0.1714768851191316 0
-0.2861155251683843 0.1797782992004098 0
0.1814790629036464 0.2900508574543985 0
-0.1797782992004098 -0.2861155251683843 0
0.2958147111215639 -0.1822443994173694 0
-0.11779490718187 0.3320576489121537 0
-0.1007011701280227 0.2426560436183529 0
-0.1883634515521556 0.1861819602099159 0
-0.08870183109201001 0.14369704988664 0
-0.1676609594712343 0.0842802749019701 0
-0.07901370907883698 0.04415911653949661 0
0.003189626972600894 0.1004877481465118 0
0.01097211762038034 0.0007129354179548849 0
-0.0716176252031157 -0.05556671857141843 0
0.0184335425579287 -0.09902157166103961 0
0.09362448872475004 0.05698551851989329 0
-0.06439432525616851 -0.1524838282296438 0
0.01992690492588611 -0.1913081704246315 0
0.105519381212476 -0.1382975295447399 0
0.09064829187129922 0.1534327776075565 0
-0.1491371082670704 -0.1093745132130376 0
0.1852136258648123 0.1107451624408674 0
0.1830010822353567 0.01638789751005498 0
0.265910607880937 0.0742843442544484 0
-0.009956749780816274 0.1993438098192641 0
-0.1591718254300218 -0.0121353678136021 0
-0.245140529712982 -0.08737841617656117 0
0.1004547043673654 -0.04157415182394153 0
0.1863249380430056 -0.07476407445120319 0
0.08109228258858556 0.2575616253303634 0
-0.2463214353796418 0.01896535310169412 0
0.2003910854370075 -0.1801410077476846 0
-0.1425430088199414 -0.2025577737499437 0
-0.07310626112905796 -0.2541295889111149 0
-0.3327884055643665 -0.04458057867201037 0
0.1020783115991261 -0.2320318840524233 0
0.09647959591882091 -0.3214553704070904 0
0.1782926050248475 0.2061779501759548 0
0.2741242738854561 -0.09781581908974515 0
-0.03983107376937656 0.3058708180004514 0
0.3372968072211083 0.1139878754679126 0
0.344164841756623 0.03819424323059086 0
-0.2353988831824149 -0.237899022289229 0
-0.2496011040858086 0.2491648050387224 0
0.2539464680322369 -0.2484498346251644 0
0.116734295099136 0.336152995746944 0
-0.3318813115838664 0.1213186110066664 0
-0.1136098622264547 -0.3337191130944079 0
0.2634463087664893 -0.01270940799920574 0
0.2483775240673666 0.2527221032463742 0
-0.2501934516506689 0.1091268178030543 0
0.02331205205901126 -0.281915565181816 0
-0.2102082252908521 -0.1651942911085431 0
0.3414035809713116 -0.1208421124678265 0
-0.3325131822595491 -0.1199628387937787 0
0.03337238334260921 -0.3560292473595489 0
2 2 0 0
2 3 0 4
126
127
128
129
-0.2914307205030376 0.436156894181586 0
0.2914307204155071 -0.4361568942353318 0
-0.291430718938341 -0.4361568950626665 0
0.2914307189383409 0.4361568950626665 0
$EndNodes
$Elements
9 256 1 256
1 9 1 3
1 9 51 
2 51 52 
3 52 10 
1 10 1 3
4 10 53 
5 53 54 
6 54 11 
1 11 1 3
7 11 55 
8 55 56 
9 56 12 
1 12 1 3
10 12 57 
11 57 58 
12 58 13 
1 13 1 3
13 13 59 
14 59 60 
15 60 14 
1 14 1 3
16 14 61 
17 61 62 
18 62 9 
2 1 2 152
19 99 89 107 
20 2 21 109 
21 72 99 107 
22 70 91 93 
23 94 99 109 
24 99 64 109 
25 91 70 107 
26 64 2 109 
27 103 73 117 
28 96 100 104 
29 102 73 103 
30 100 65 104 
31 89 91 107 
32 21 75 109 
33 68 96 124 
34 96 68 122 
35 112 102 122 
36 73 102 112 
37 65 100 120 
38 116 65 120 
39 98 101 108 
40 101 74 108 
41 33 34 106 
42 81 89 94 
43 3 27 104 
44 78 81 94 
45 67 101 105 
46 76 94 109 
47 90 83 95 
48 90 95 96 
49 83 80 95 
50 92 97 98 
51 84 88 97 
52 97 88 98 
53 82 84 97 
54 85 82 97 
55 84 87 88 
56 92 85 97 
57 91 92 93 
58 91 85 92 
59 86 83 90 
60 84 86 87 
61 89 85 91 
62 84 83 86 
63 81 85 89 
64 82 83 84 
65 81 82 85 
66 82 80 83 
67 81 80 82 
68 78 80 81 
69 80 79 95 
70 78 79 80 
71 76 78 94 
72 78 77 79 
73 77 71 120 
74 76 77 78 
75 106 105 121 
76 34 67 106 
77 71 77 113 
78 65 3 104 
79 22 23 69 
80 16 17 70 
81 28 29 68 
82 34 35 67 
83 36 37 74 
84 18 19 72 
85 30 31 73 
86 24 25 71 
87 38 1 66 
88 26 3 65 
89 32 4 63 
90 20 2 64 
91 96 95 100 
92 99 72 115 
93 76 69 77 
94 87 86 103 
95 70 93 110 
96 94 89 99 
97 101 67 114 
98 92 98 118 
99 95 79 100 
100 79 77 120 
101 98 88 101 
102 90 96 122 
103 111 93 118 
104 86 90 102 
105 105 87 121 
106 101 88 105 
107 96 104 124 
108 63 103 117 
109 77 69 113 
110 88 87 105 
111 98 108 118 
112 66 111 118 
113 86 102 103 
114 75 69 76 
115 64 99 115 
116 67 105 106 
117 74 101 114 
118 1 15 111 
119 15 16 110 
120 21 22 75 
121 23 24 113 
122 29 30 112 
123 35 36 114 
124 25 26 116 
125 19 20 115 
126 31 32 117 
127 93 92 118 
128 27 28 124 
129 4 33 125 
130 87 103 121 
131 75 76 109 
132 17 18 119 
133 106 121 125 
134 69 23 113 
135 68 29 112 
136 22 69 75 
137 16 70 110 
138 67 35 114 
139 66 1 111 
140 30 73 112 
141 24 71 113 
142 36 74 114 
143 72 19 115 
144 71 25 116 
145 73 31 117 
146 32 63 117 
147 20 64 115 
148 26 65 116 
149 70 17 119 
150 18 72 119 
151 74 37 123 
152 38 66 123 
153 37 38 123 
154 110 93 111 
155 68 112 122 
156 100 79 120 
157 28 68 124 
158 63 4 125 
159 33 106 125 
160 104 27 124 
161 108 66 118 
162 71 116 120 
163 103 63 121 
164 102 90 122 
165 107 70 119 
166 72 107 119 
167 15 110 111 
168 108 74 123 
169 66 108 123 
170 121 63 125 
2 2 2 44
171 26 25 44 
172 32 31 47 
173 19 41 20 
174 28 27 45 
175 21 42 22 
176 39 16 15 
177 38 37 50 
178 34 33 48 
179 23 43 24 
180 18 17 40 
181 30 29 46 
182 36 35 49 
183 41 6 20 
184 27 7 45 
185 32 47 8 
186 33 8 48 
187 39 17 16 
188 18 41 19 
189 22 42 23 
190 44 25 24 
191 43 44 24 
192 29 28 45 
193 31 30 47 
194 35 34 48 
195 35 48 49 
196 37 36 50 
197 36 49 50 
198 5 15 1 
199 38 5 1 
200 20 6 2 
201 6 21 2 
202 26 7 3 
203 7 27 3 
204 4 32 8 
205 33 4 8 
206 39 15 5 
207 5 38 50 
208 6 42 21 
209 7 26 44 
210 40 17 39 
211 41 18 40 
212 42 43 23 
213 46 29 45 
214 47 30 46 
2 3 2 42
215 43 42 126 
216 49 48 127 
217 47 46 128 
218 41 40 129 
219 13 59 126 
220 10 53 127 
221 62 9 128 
222 56 12 129 
223 46 62 128 
224 40 56 129 
225 53 49 127 
226 59 43 126 
227 9 47 128 
228 12 41 129 
229 48 10 127 
230 42 13 126 
231 57 58 6 
232 51 52 8 
233 48 52 10 
234 12 57 41 
235 54 11 5 
236 11 55 5 
237 55 39 5 
238 50 54 5 
239 41 57 6 
240 58 42 6 
241 60 14 7 
242 14 61 7 
243 60 7 44 
244 7 61 45 
245 47 51 8 
246 52 48 8 
247 51 47 9 
248 58 13 42 
249 56 40 39 
250 55 56 39 
251 43 59 44 
252 59 60 44 
253 62 46 45 
254 61 62 45 
255 50 49 53 
256 54 50 53 
$EndElements
