$MeshFormat
2.2 0 8
$EndMeshFormat
$PhysicalNames
4
2 1 "uo2"
2 2 "zr"
2 3 "co2"
1 10 "_boundary"
$EndPhysicalNames
$Nodes
145
1 0 0 0
2 -0.1226654590124435 -0.2124628073433099 0
3 -0.06349631393732603 -0.2369714697074447 0
4 1.502218617455298e-17 -0.2453309180248871 0
5 0.06349631393732612 -0.2369714697074447 0
6 0.1226654590124436 -0.2124628073433098 0
7 0.1734751557701187 -0.1734751557701186 0
8 0.2124628073433099 -0.1226654590124435 0
9 0.2369714697074447 -0.06349631393732605 0
10 0.2453309180248871 0 0
11 0.2369714697074447 0.0634963139373261 0
12 0.2124628073433098 0.1226654590124436 0
13 0.1734751557701187 0.1734751557701187 0
14 0.1226654590124435 0.2124628073433099 0
15 0.06349631393732601 0.2369714697074447 0
16 1.502218617455298e-17 0.2453309180248871 0
17 -0.06349631393732598 0.2369714697074448 0
18 -0.1226654590124435 0.2124628073433099 0
19 -0.1734751557701187 0.1734751557701186 0
20 -0.2124628073433099 0.1226654590124435 0
21 -0.2369714697074447 0.06349631393732613 0
22 -0.2453309180248871 -7.890444118835662e-17 0
23 -0.2369714697074447 -0.06349631393732608 0
24 -0.2124628073433099 -0.1226654590124435 0
25 -0.1734751557701187 -0.1734751557701185 0
26 -0.1734751557701186 -0.3004677836447708 0
27 -0.08979734833086626 -0.3351282663557534 0
28 2.124457942454643e-17 -0.3469503115402373 0
29 0.08979734833086638 -0.3351282663557534 0
30 0.1734751557701187 -0.3004677836447708 0
31 0.2453309180248871 -0.245330918024887 0
32 0.3004677836447708 -0.1734751557701186 0
33 0.3351282663557534 -0.08979734833086628 0
34 0.3469503115402373 0 0
35 0.3351282663557534 0.08979734833086636 0
36 0.3004677836447707 0.1734751557701187 0
37 0.2453309180248871 0.2453309180248871 0
38 0.1734751557701186 0.3004677836447708 0
39 0.08979734833086622 0.3351282663557534 0
40 2.124457942454643e-17 0.3469503115402373 0
41 -0.08979734833086618 0.3351282663557534 0
42 -0.1734751557701186 0.3004677836447708 0
43 -0.2453309180248872 0.245330918024887 0
44 -0.3004677836447708 0.1734751557701186 0
45 -0.3351282663557534 0.0897973483308664 0
46 -0.3469503115402373 -1.115877308600442e-16 0
47 -0.3351282663557534 -0.08979734833086632 0
48 -0.3004677836447708 -0.1734751557701186 0
49 -0.2453309180248872 -0.2453309180248869 0
50 -0.2124628073433098 -0.3679963770373307 0
51 -0.1099788418327925 -0.4104466254775634 0
52 2.601918969508452e-17 -0.4249256146866197 0
53 0.1099788418327927 -0.4104466254775634 0
54 0.2124628073433099 -0.3679963770373306 0
55 0.3004677836447709 -0.3004677836447707 0
56 0.3679963770373307 -0.2124628073433098 0
57 0.4104466254775634 -0.1099788418327926 0
58 0.4249256146866197 0 0
59 0.4104466254775634 0.1099788418327926 0
60 0.3679963770373306 0.2124628073433099 0
61 0.3004677836447708 0.3004677836447708 0
62 0.2124628073433098 0.3679963770373307 0
63 0.1099788418327925 0.4104466254775634 0
64 2.601918969508452e-17 0.4249256146866197 0
65 -0.1099788418327924 0.4104466254775634 0
66 -0.2124628073433098 0.3679963770373307 0
67 -0.3004677836447709 0.3004677836447707 0
68 -0.3679963770373307 0.2124628073433098 0
69 -0.4104466254775634 0.1099788418327927 0
70 -0.4249256146866197 -1.366665010810641e-16 0
71 -0.4104466254775634 -0.1099788418327926 0
72 -0.3679963770373307 -0.2124628073433097 0
73 -0.3004677836447709 -0.3004677836447707 0
74 -0.245185096897479 -0.4246730450851322 0
75 -0.1269171453047491 -0.4736612346289256 0
76 3.002651441141314e-17 -0.4903701937949583 0
77 0.1269171453047493 -0.4736612346289256 0
78 0.2451850968974792 -0.4246730450851322 0
79 0.3467440893241766 -0.3467440893241764 0
80 0.4246730450851322 -0.2451850968974791 0
81 0.4736612346289256 -0.1269171453047491 0
82 0.4903701937949583 0 0
83 0.4736612346289256 0.1269171453047492 0
84 0.4246730450851321 0.2451850968974792 0
85 0.3467440893241765 0.3467440893241765 0
86 0.2451850968974791 0.4246730450851322 0
87 0.126917145304749 0.4736612346289256 0
88 3.002651441141314e-17 0.4903701937949583 0
89 -0.126917145304749 0.4736612346289257 0
90 -0.245185096897479 0.4246730450851322 0
91 -0.3467440893241766 0.3467440893241763 0
92 -0.4246730450851322 0.2451850968974791 0
93 -0.4736612346289256 0.1269171453047493 0
94 -0.4903701937949583 -1.577150830735988e-16 0
95 -0.4736612346289256 -0.1269171453047492 0
96 -0.4246730450851323 -0.245185096897479 0
97 -0.3467440893241767 -0.3467440893241763 0
98 -0.3117691453623979 -0.5400000000000001 0
99 -0.1558845726811989 -0.5400000000000001 0
100 1.110223024625157e-16 -0.54 0
101 0.1558845726811991 -0.54 0
102 0.311769145362398 -0.54 0
103 0.3897114317029975 -0.405 0
104 0.467653718043597 -0.27 0
105 0.5455960043841965 -0.135 0
106 0.6235382907247959 0 0
107 0.5455960043841964 0.135 0
108 0.4676537180435969 0.2700000000000001 0
109 0.3897114317029974 0.4050000000000001 0
110 0.3117691453623979 0.5400000000000001 0
111 0.155884572681199 0.5400000000000001 0
112 5.551115123125783e-17 0.5400000000000001 0
113 -0.1558845726811989 0.5400000000000001 0
114 -0.3117691453623979 0.5400000000000001 0
115 -0.3897114317029974 0.405 0
116 -0.4676537180435969 0.27 0
117 -0.5455960043841964 0.1349999999999999 0
118 -0.6235382907247959 -2.0054520965104e-16 0
119 -0.5455960043841964 -0.1350000000000002 0
120 -0.4676537180435969 -0.2700000000000002 0
121 -0.3897114317029974 -0.4050000000000001 0
122 -0.2784771211299384 -0.4823365225425662 0
123 -0.141400858992974 -0.5068306173144629 0
124 7.052440843696439e-17 -0.5151850968974792 0
125 0.1414008589929742 -0.5068306173144628 0
126 0.2784771211299386 -0.4823365225425661 0
127 0.368227760513587 -0.3758720446620882 0
128 0.4461633815643646 -0.2575925484487395 0
129 0.5096286195065611 -0.1309585726523746 0
130 0.5569542422598771 0 0
131 0.509628619506561 0.1309585726523746 0
132 0.4461633815643645 0.2575925484487397 0
133 0.368227760513587 0.3758720446620883 0
134 0.2784771211299385 0.4823365225425662 0
135 0.141400858992974 0.5068306173144629 0
136 4.276883282133549e-17 0.5151850968974792 0
137 -0.1414008589929739 0.5068306173144629 0
138 -0.2784771211299384 0.4823365225425662 0
139 -0.368227760513587 0.3758720446620882 0
140 -0.4461633815643645 0.2575925484487395 0
141 -0.509628619506561 0.1309585726523746 0
142 -0.5569542422598771 -1.791301463623194e-16 0
143 -0.509628619506561 -0.1309585726523747 0
144 -0.4461633815643646 -0.2575925484487396 0
145 -0.368227760513587 -0.3758720446620882 0
$EndNodes
$Elements
168
1 1 2 10 10 98 99
2 1 2 10 10 99 100
3 1 2 10 10 100 101
4 1 2 10 10 101 102
5 1 2 10 10 102 103
6 1 2 10 10 103 104
7 1 2 10 10 104 105
8 1 2 10 10 105 106
9 1 2 10 10 106 107
10 1 2 10 10 107 108
11 1 2 10 10 108 109
12 1 2 10 10 109 110
13 1 2 10 10 110 111
14 1 2 10 10 111 112
15 1 2 10 10 112 113
16 1 2 10 10 113 114
17 1 2 10 10 114 115
18 1 2 10 10 115 116
19 1 2 10 10 116 117
20 1 2 10 10 117 118
21 1 2 10 10 118 119
22 1 2 10 10 119 120
23 1 2 10 10 120 121
24 1 2 10 10 121 98
25 3 2 1 1 2 26 27 3
26 3 2 1 1 3 27 28 4
27 3 2 1 1 4 28 29 5
28 3 2 1 1 5 29 30 6
29 3 2 1 1 6 30 31 7
30 3 2 1 1 7 31 32 8
31 3 2 1 1 8 32 33 9
32 3 2 1 1 9 33 34 10
33 3 2 1 1 10 34 35 11
34 3 2 1 1 11 35 36 12
35 3 2 1 1 12 36 37 13
36 3 2 1 1 13 37 38 14
37 3 2 1 1 14 38 39 15
38 3 2 1 1 15 39 40 16
39 3 2 1 1 16 40 41 17
40 3 2 1 1 17 41 42 18
41 3 2 1 1 18 42 43 19
42 3 2 1 1 19 43 44 20
43 3 2 1 1 20 44 45 21
44 3 2 1 1 21 45 46 22
45 3 2 1 1 22 46 47 23
46 3 2 1 1 23 47 48 24
47 3 2 1 1 24 48 49 25
48 3 2 1 1 25 49 26 2
49 3 2 1 1 26 50 51 27
50 3 2 1 1 27 51 52 28
51 3 2 1 1 28 52 53 29
52 3 2 1 1 29 53 54 30
53 3 2 1 1 30 54 55 31
54 3 2 1 1 31 55 56 32
55 3 2 1 1 32 56 57 33
56 3 2 1 1 33 57 58 34
57 3 2 1 1 34 58 59 35
58 3 2 1 1 35 59 60 36
59 3 2 1 1 36 60 61 37
60 3 2 1 1 37 61 62 38
61 3 2 1 1 38 62 63 39
62 3 2 1 1 39 63 64 40
63 3 2 1 1 40 64 65 41
64 3 2 1 1 41 65 66 42
65 3 2 1 1 42 66 67 43
66 3 2 1 1 43 67 68 44
67 3 2 1 1 44 68 69 45
68 3 2 1 1 45 69 70 46
69 3 2 1 1 46 70 71 47
70 3 2 1 1 47 71 72 48
71 3 2 1 1 48 72 73 49
72 3 2 1 1 49 73 50 26
73 3 2 2 2 50 74 75 51
74 3 2 2 2 51 75 76 52
75 3 2 2 2 52 76 77 53
76 3 2 2 2 53 77 78 54
77 3 2 2 2 54 78 79 55
78 3 2 2 2 55 79 80 56
79 3 2 2 2 56 80 81 57
80 3 2 2 2 57 81 82 58
81 3 2 2 2 58 82 83 59
82 3 2 2 2 59 83 84 60
83 3 2 2 2 60 84 85 61
84 3 2 2 2 61 85 86 62
85 3 2 2 2 62 86 87 63
86 3 2 2 2 63 87 88 64
87 3 2 2 2 64 88 89 65
88 3 2 2 2 65 89 90 66
89 3 2 2 2 66 90 91 67
90 3 2 2 2 67 91 92 68
91 3 2 2 2 68 92 93 69
92 3 2 2 2 69 93 94 70
93 3 2 2 2 70 94 95 71
94 3 2 2 2 71 95 96 72
95 3 2 2 2 72 96 97 73
96 3 2 2 2 73 97 74 50
97 3 2 3 3 74 122 123 75
98 3 2 3 3 75 123 124 76
99 3 2 3 3 76 124 125 77
100 3 2 3 3 77 125 126 78
101 3 2 3 3 78 126 127 79
102 3 2 3 3 79 127 128 80
103 3 2 3 3 80 128 129 81
104 3 2 3 3 81 129 130 82
105 3 2 3 3 82 130 131 83
106 3 2 3 3 83 131 132 84
107 3 2 3 3 84 132 133 85
108 3 2 3 3 85 133 134 86
109 3 2 3 3 86 134 135 87
110 3 2 3 3 87 135 136 88
111 3 2 3 3 88 136 137 89
112 3 2 3 3 89 137 138 90
113 3 2 3 3 90 138 139 91
114 3 2 3 3 91 139 140 92
115 3 2 3 3 92 140 141 93
116 3 2 3 3 93 141 142 94
117 3 2 3 3 94 142 143 95
118 3 2 3 3 95 143 144 96
119 3 2 3 3 96 144 145 97
120 3 2 3 3 97 145 122 74
121 3 2 3 3 122 98 99 123
122 3 2 3 3 123 99 100 124
123 3 2 3 3 124 100 101 125
124 3 2 3 3 125 101 102 126
125 3 2 3 3 126 102 103 127
126 3 2 3 3 127 103 104 128
127 3 2 3 3 128 104 105 129
128 3 2 3 3 129 105 106 130
129 3 2 3 3 130 106 107 131
130 3 2 3 3 131 107 108 132
131 3 2 3 3 132 108 109 133
132 3 2 3 3 133 109 110 134
133 3 2 3 3 134 110 111 135
134 3 2 3 3 135 111 112 136
135 3 2 3 3 136 112 113 137
136 3 2 3 3 137 113 114 138
137 3 2 3 3 138 114 115 139
138 3 2 3 3 139 115 116 140
139 3 2 3 3 140 116 117 141
140 3 2 3 3 141 117 118 142
141 3 2 3 3 142 118 119 143
142 3 2 3 3 143 119 120 144
143 3 2 3 3 144 120 121 145
144 3 2 3 3 145 121 98 122
145 2 2 1 1 1 2 3
146 2 2 1 1 1 3 4
147 2 2 1 1 1 4 5
148 2 2 1 1 1 5 6
149 2 2 1 1 1 6 7
150 2 2 1 1 1 7 8
151 2 2 1 1 1 8 9
152 2 2 1 1 1 9 10
153 2 2 1 1 1 10 11
154 2 2 1 1 1 11 12
155 2 2 1 1 1 12 13
156 2 2 1 1 1 13 14
157 2 2 1 1 1 14 15
158 2 2 1 1 1 15 16
159 2 2 1 1 1 16 17
160 2 2 1 1 1 17 18
161 2 2 1 1 1 18 19
162 2 2 1 1 1 19 20
163 2 2 1 1 1 20 21
164 2 2 1 1 1 21 22
165 2 2 1 1 1 22 23
166 2 2 1 1 1 23 24
167 2 2 1 1 1 24 25
168 2 2 1 1 1 25 2
$EndElements
